<svg width="59" height="59" viewBox="0 0 59 59" fill="none" xmlns="http://www.w3.org/2000/svg">
<path id="Vector" fill-rule="evenodd" clip-rule="evenodd" d="M10.5028 11.6028C0.875166 21.8099 1.0582 37.9167 11.0458 47.9042C18.8857 55.7441 30.484 57.5378 40.0506 53.3037C40.6912 53.0169 41.4478 53.3037 41.7284 53.9504C42.0152 54.591 41.7284 55.3475 41.0878 55.6282C30.5877 60.2772 17.8608 58.3066 9.25204 49.704C-1.73612 38.716 -1.91306 20.9923 8.71514 9.79076L5.3168 9.64433C4.60907 9.61383 4.07217 9.02202 4.10267 8.3204C4.12708 7.61877 4.72499 7.07578 5.42052 7.10018L11.7047 7.36863C12.3636 7.39913 12.8944 7.92383 12.9188 8.58274L13.1934 14.8669C13.2239 15.5685 12.6748 16.1603 11.9793 16.1908C11.2776 16.2213 10.6858 15.6783 10.6492 14.9767L10.5089 11.5967L10.5028 11.6028ZM48.4458 47.349C58.0734 37.1419 57.8904 21.0351 47.9089 11.0476C40.0689 3.20769 28.4706 1.40787 18.9041 5.64812C18.2634 5.92877 17.5069 5.64202 17.2262 5.00141C16.9395 4.36079 17.2262 3.61036 17.8669 3.32361C28.373 -1.32541 41.1 0.645235 49.7026 9.24776C60.6908 20.2297 60.8616 37.9595 50.2334 49.1549L53.6318 49.2953C54.3395 49.3258 54.8764 49.9176 54.8459 50.6192C54.8215 51.3208 54.2236 51.8638 53.5281 51.8333L47.2439 51.571C46.5849 51.5405 46.0542 51.0158 46.0297 50.3508L45.7613 44.0666C45.7308 43.365 46.2738 42.7732 46.9754 42.7427C47.671 42.7122 48.2689 43.2613 48.2994 43.9629L48.4397 47.3429L48.4458 47.349ZM35.9202 45.3296C32.4425 47.0806 28.5134 47.0745 25.0174 45.6163C16.1768 41.9313 9.76454 28.6553 21.7289 11.2794C21.9912 10.889 22.461 10.6815 22.9308 10.7364C23.4006 10.7974 23.8033 11.1147 23.9619 11.5601C26.3719 18.0638 30.5633 19.223 34.3522 20.6507C37.3356 21.7733 40.1055 23.0606 41.9847 26.343C44.4618 30.687 45.322 38.6001 38.1166 43.9629C38.8487 44.6889 39.5869 45.3723 40.3069 45.9946C40.8377 46.4522 40.9048 47.2575 40.4411 47.7883C39.9774 48.3191 39.1782 48.3801 38.6413 47.9225C37.7383 47.1416 36.817 46.2691 35.9079 45.3418L35.9202 45.3296ZM36.3472 42.1021C42.4545 37.7276 41.82 31.1812 39.7822 27.5998C37.8115 24.1588 34.5718 23.4938 31.3809 22.2492C28.1229 20.974 24.8771 19.2657 22.5464 14.6716C13.6327 29.1434 18.477 40.1436 25.9936 43.2735C28.5866 44.3534 31.4663 44.4571 34.1081 43.3711C31.1918 40.046 28.7696 36.4098 28.2449 33.951C28.1046 33.2677 28.5378 32.5905 29.2211 32.4441C29.9105 32.2977 30.5877 32.7369 30.7281 33.4264C31.2101 35.7082 33.5712 39.0699 36.3472 42.1143V42.1021Z" fill="white" stroke="white" stroke-width="0.7"/>
</svg>
