<svg width="107" height="107" viewBox="0 0 107 107" fill="none" xmlns="http://www.w3.org/2000/svg">
<g filter="url(#filter0_d_28_313)">
<rect x="7" y="5" width="92.9517" height="92.9517" rx="46.4759" fill="#00BCC3"/>
</g>
<path fill-rule="evenodd" clip-rule="evenodd" d="M34.5028 33.6028C24.8752 43.8099 25.0582 59.9167 35.0458 69.9042C42.8857 77.7441 54.484 79.5378 64.0506 75.3037C64.6912 75.0169 65.4478 75.3037 65.7284 75.9504C66.0152 76.591 65.7284 77.3475 65.0878 77.6282C54.5877 82.2772 41.8608 80.3066 33.252 71.704C22.2639 60.716 22.0869 42.9923 32.7151 31.7908L29.3168 31.6443C28.6091 31.6138 28.0722 31.022 28.1027 30.3204C28.1271 29.6188 28.725 29.0758 29.4205 29.1002L35.7047 29.3686C36.3636 29.3991 36.8944 29.9238 36.9188 30.5827L37.1934 36.8669C37.2239 37.5685 36.6748 38.1603 35.9793 38.1908C35.2776 38.2213 34.6858 37.6783 34.6492 36.9767L34.5089 33.5967L34.5028 33.6028ZM72.4458 69.349C82.0734 59.1419 81.8904 43.0351 71.9089 33.0476C64.0689 25.2077 52.4706 23.4079 42.9041 27.6481C42.2634 27.9288 41.5069 27.642 41.2262 27.0014C40.9395 26.3608 41.2262 25.6104 41.8669 25.3236C52.373 20.6746 65.1 22.6452 73.7026 31.2478C84.6908 42.2297 84.8616 59.9595 74.2334 71.1549L77.6318 71.2953C78.3395 71.3258 78.8764 71.9176 78.8459 72.6192C78.8215 73.3208 78.2236 73.8638 77.5281 73.8333L71.2439 73.571C70.5849 73.5405 70.0542 73.0158 70.0297 72.3508L69.7613 66.0666C69.7308 65.365 70.2738 64.7732 70.9754 64.7427C71.671 64.7122 72.2689 65.2613 72.2994 65.9629L72.4397 69.3429L72.4458 69.349ZM59.9202 67.3296C56.4425 69.0806 52.5134 69.0745 49.0174 67.6163C40.1768 63.9313 33.7645 50.6553 45.7289 33.2794C45.9912 32.889 46.461 32.6815 46.9308 32.7364C47.4006 32.7974 47.8033 33.1147 47.9619 33.5601C50.3719 40.0638 54.5633 41.223 58.3522 42.6507C61.3356 43.7733 64.1055 45.0606 65.9847 48.343C68.4618 52.687 69.322 60.6001 62.1166 65.9629C62.8487 66.6889 63.5869 67.3723 64.3069 67.9946C64.8377 68.4522 64.9048 69.2575 64.4411 69.7883C63.9774 70.3191 63.1782 70.3801 62.6413 69.9225C61.7383 69.1416 60.817 68.2691 59.9079 67.3418L59.9202 67.3296ZM60.3472 64.1021C66.4545 59.7276 65.82 53.1812 63.7822 49.5998C61.8115 46.1588 58.5718 45.4938 55.3809 44.2492C52.1229 42.974 48.8771 41.2657 46.5464 36.6716C37.6327 51.1434 42.477 62.1436 49.9936 65.2735C52.5866 66.3534 55.4663 66.4571 58.1081 65.3711C55.1918 62.046 52.7696 58.4098 52.2449 55.951C52.1046 55.2677 52.5378 54.5905 53.2211 54.4441C53.9105 54.2977 54.5877 54.7369 54.7281 55.4264C55.2101 57.7082 57.5712 61.0699 60.3472 64.1143V64.1021Z" fill="white" stroke="white" stroke-width="0.7"/>
<defs>
<filter id="filter0_d_28_313" x="0" y="0" width="106.952" height="106.952" filterUnits="userSpaceOnUse" color-interpolation-filters="sRGB">
<feFlood flood-opacity="0" result="BackgroundImageFix"/>
<feColorMatrix in="SourceAlpha" type="matrix" values="0 0 0 0 0 0 0 0 0 0 0 0 0 0 0 0 0 0 127 0" result="hardAlpha"/>
<feOffset dy="2"/>
<feGaussianBlur stdDeviation="3.5"/>
<feComposite in2="hardAlpha" operator="out"/>
<feColorMatrix type="matrix" values="0 0 0 0 0 0 0 0 0 0 0 0 0 0 0 0 0 0 0.19 0"/>
<feBlend mode="normal" in2="BackgroundImageFix" result="effect1_dropShadow_28_313"/>
<feBlend mode="normal" in="SourceGraphic" in2="effect1_dropShadow_28_313" result="shape"/>
</filter>
</defs>
</svg>
