<svg width="108" height="108" viewBox="0 0 108 108" fill="none" xmlns="http://www.w3.org/2000/svg">
<g filter="url(#filter0_d_28_296)">
<rect x="7" y="5" width="93.2518" height="93.2518" rx="46.6259" fill="#00BCC3"/>
<path d="M53.4759 27.6421C54.1328 27.6421 54.6676 27.0196 54.6676 26.2548V20.6876C54.6676 19.9228 54.1328 19.3003 53.4759 19.3003C52.8189 19.3003 52.2842 19.9228 52.2842 20.6876V26.2459C52.2842 27.0107 52.8189 27.6332 53.4759 27.6332V27.6421Z" fill="#00BCC3"/>
<path d="M62.4499 29.9292C62.579 29.9934 62.7146 30.0255 62.8308 30.0255C63.2245 30.0255 63.5989 29.7366 63.7603 29.247L65.316 24.6162C65.5291 23.9742 65.2838 23.2358 64.7738 22.971C64.2638 22.7061 63.6635 23.0111 63.4505 23.6451L61.8948 28.2759C61.6817 28.918 61.927 29.6563 62.437 29.9212H62.4499V29.9292Z" fill="#00BCC3"/>
<path d="M43.7532 29.2463C43.9683 29.7202 44.4672 30.0255 44.992 30.0255C45.1641 30.0255 45.3447 30.0014 45.4996 29.9291C46.1878 29.664 46.5061 28.9249 46.2222 28.2822L44.1489 23.647C43.865 23.0043 43.0736 22.7071 42.3854 22.9722C41.6971 23.2373 41.3788 23.9763 41.6627 24.619L43.736 29.2543H43.7532V29.2463Z" fill="#00BCC3"/>
<path d="M88.0909 47.7724L72.5803 32.6123C71.0293 31.0963 68.512 31.0963 66.9694 32.6123L64.7996 34.733C63.452 36.0502 63.274 38.0882 64.2741 39.5876L62.7908 41.0373C58.9937 39.7947 55.061 40.764 52.9675 41.493C52.3742 41.7001 51.8148 41.9817 51.2977 42.338C49.2042 40.9379 46.3818 40.6148 45.1952 40.5486L42.7288 38.1379C43.7204 36.6384 43.5509 34.6005 42.2033 33.2833L40.0335 31.1625C38.4824 29.6465 35.9651 29.6465 34.4225 31.1625L18.895 46.3227C18.1407 47.06 17.7253 48.0292 17.7253 49.0648C17.7253 50.1003 18.1322 51.0696 18.895 51.8069L21.0648 53.9276C21.8191 54.6649 22.8108 55.0709 23.8703 55.0709C24.65 55.0709 25.3959 54.8472 26.0316 54.4495L28.7184 57.0756C29.0489 57.6804 30.1253 59.5609 31.6679 61.3337L31.2611 61.7314C29.4303 63.5208 29.4303 66.4451 31.2865 68.2677C32.2019 69.1624 33.4055 69.6097 34.609 69.6097H34.7022C34.6853 70.8275 35.143 72.0453 36.0923 72.9731C37.0415 73.9009 38.2112 74.3152 39.4148 74.3152C39.7029 74.3152 39.9996 74.2903 40.2878 74.2406C40.4234 75.2264 40.8472 76.1957 41.6354 76.9578C42.5508 77.8525 43.7543 78.2999 44.9579 78.2999C45.2461 78.2999 45.5427 78.275 45.8309 78.2253C45.9665 79.2111 46.3903 80.1804 47.1785 80.9426C48.0939 81.8372 49.2975 82.2846 50.501 82.2846C50.8061 82.2846 51.1197 82.2598 51.4249 82.1935L51.5266 82.2929C52.3996 83.171 53.5947 83.6515 54.866 83.6515C56.1374 83.6515 57.3155 83.171 58.2139 82.3095C59.1378 81.4065 59.587 80.2218 59.5785 79.0206C59.6463 79.0206 59.6972 79.0372 59.7481 79.0372C61.0025 79.0372 62.1975 78.5567 63.096 77.6786C63.8757 76.9164 64.2995 75.9554 64.4182 74.9696C64.7064 75.0193 65.003 75.0607 65.3081 75.0607C66.5625 75.0607 67.7576 74.5803 68.6476 73.7021C69.5884 72.7826 70.0546 71.5565 70.0206 70.347H70.1139C71.7582 70.347 73.2669 69.5186 74.1399 68.1434C75.0298 66.7434 75.0298 64.9705 74.2331 63.5125C76.869 61.284 78.5388 58.5585 78.9626 57.8129L80.9204 55.8993C81.5561 56.2969 82.2935 56.5206 83.0818 56.5206C84.1412 56.5206 85.1329 56.123 85.8872 55.3774L88.057 53.2566C88.8114 52.5193 89.2267 51.5501 89.2267 50.5145C89.2267 49.479 88.8198 48.5097 88.057 47.7724V47.7476L88.0909 47.7724ZM22.9294 52.1217L20.7597 50.0009C20.5054 49.7524 20.3782 49.4293 20.3782 49.0813C20.3782 48.7334 20.5139 48.4103 20.7597 48.1618L36.2703 33.0016C36.5245 32.7448 36.8636 32.6288 37.2111 32.6288C37.5586 32.6288 37.8891 32.7614 38.1519 33.0016L40.3217 35.1224C40.8387 35.6277 40.8387 36.4396 40.3217 36.9449L24.828 52.0885C24.3279 52.5773 23.4549 52.5773 22.9633 52.0885L22.9379 52.1134L22.9294 52.1217ZM33.1173 66.412C32.3206 65.6333 32.3206 64.3575 33.1173 63.5788L35.7363 61.0189C36.1346 60.6296 36.6517 60.439 37.1772 60.439C37.7027 60.439 38.2536 60.6462 38.6774 61.0604C39.4741 61.8391 39.4741 63.1149 38.6774 63.8936L36.0584 66.4534C35.2532 67.2321 33.9564 67.2404 33.1173 66.4286V66.412ZM37.9315 71.1257C37.1348 70.347 37.1348 69.0712 37.9315 68.2925L40.5505 65.7327C40.9489 65.3433 41.4659 65.1528 41.9914 65.1528C42.5169 65.1528 43.0678 65.3599 43.4916 65.7741C44.2883 66.5528 44.2883 67.8286 43.4916 68.6073L40.8726 71.1671C40.0759 71.9459 38.7706 71.9459 37.9315 71.1423V71.1257ZM43.4831 75.1022C42.6864 74.3234 42.6864 73.0477 43.4831 72.2689L46.1021 69.7091C46.5005 69.3198 47.0175 69.1292 47.543 69.1292C48.0685 69.1292 48.6194 69.3363 49.0432 69.7505C49.8399 70.5293 49.8399 71.805 49.0432 72.5838L46.4242 75.1436C45.6275 75.9223 44.3222 75.9306 43.4831 75.1187V75.1022ZM49.0347 76.2371L51.6537 73.6773C52.0521 73.2879 52.5691 73.0974 53.0946 73.0974C53.6201 73.0974 54.171 73.3045 54.5948 73.7187C55.3915 74.4974 55.3915 75.7732 54.5948 76.5519L51.9758 79.1117C51.1791 79.8905 49.8738 79.8905 49.0347 79.0869C48.238 78.3082 48.238 77.0324 49.0347 76.2537V76.2371ZM56.3578 80.4704C55.739 81.0751 54.7389 81.1828 53.9761 80.8183L56.4764 78.3744C56.5697 78.2833 56.6205 78.1922 56.7053 78.1011C57.1121 78.8798 57.0273 79.8242 56.3578 80.4704ZM71.9192 66.7765C71.2327 67.8617 69.5714 68.044 68.673 67.1659L60.9007 59.5692C60.3837 59.0639 59.5531 59.0639 59.0361 59.5692C58.5191 60.0745 58.5191 60.8864 59.0361 61.3917L66.8083 68.9884C67.6135 69.7754 67.6135 71.076 66.8083 71.863C66.0031 72.65 64.664 72.6417 63.8673 71.863L56.095 64.2664C55.578 63.761 54.7474 63.761 54.2303 64.2664C53.8489 64.6392 53.7388 65.1942 53.9422 65.6747C54.01 65.8321 54.1032 65.9729 54.2303 66.1055L61.2652 72.9814C62.0704 73.7684 62.0704 75.069 61.2652 75.856C60.4854 76.6182 59.1887 76.6596 58.3241 75.856C58.2987 75.8312 58.2733 75.7898 58.2478 75.7649L57.841 75.3755C57.9088 74.1163 57.4596 72.824 56.4679 71.8547C55.3322 70.7446 53.7388 70.3139 52.2555 70.5872C52.1199 69.6014 51.6961 68.6322 50.9079 67.87C49.7721 66.7599 48.1787 66.3291 46.6954 66.6025C46.5598 65.6167 46.136 64.6474 45.3478 63.8853C44.407 62.9657 43.161 62.5267 41.932 62.5515C41.949 61.3337 41.4913 60.116 40.542 59.1881C38.7113 57.3987 35.7193 57.3904 33.8971 59.1881L33.5665 59.5112C32.0324 57.7135 31.0068 55.7667 30.9983 55.7419C30.9305 55.6093 30.8543 55.5099 30.7441 55.4022L27.9725 52.6933L40.898 40.0598L43.6696 42.7688C43.9238 43.0173 44.2544 43.1415 44.6104 43.1415C45.4749 43.1415 47.6277 43.3652 49.2297 44.1771L46.1699 47.1677C44.568 48.7334 44.2374 51.169 45.3902 52.9501C46.2632 54.3253 47.7718 55.1537 49.4161 55.1537C50.6705 55.1537 51.8656 54.6732 52.7556 53.7951L54.7982 51.7986C55.9085 50.7133 57.7393 50.7133 58.8496 51.7986L71.5378 64.2001C72.2667 64.9291 72.4278 65.9978 71.9362 66.7765H71.9531H71.9192ZM76.9792 56.123C76.886 56.2141 76.8097 56.3135 76.7419 56.4378C76.725 56.4626 75.14 59.3538 72.5464 61.5491L60.7058 49.976C59.6294 48.9239 58.2139 48.3938 56.8154 48.3938C55.417 48.3938 53.993 48.9239 52.9251 49.976L50.8824 51.9725C49.967 52.8672 48.3228 52.6684 47.6277 51.5832C47.1277 50.8045 47.2972 49.7192 48.0346 48.9985L52.0436 45.0801C52.5691 44.5664 53.1709 44.1854 53.815 43.97C55.6967 43.3072 59.3412 42.4125 62.5705 43.7794C63.0705 43.9865 63.6469 43.8788 64.0283 43.5061L66.054 41.5261L78.9965 54.1762L76.9708 56.1561L76.9877 56.1395L76.9792 56.123ZM86.2093 51.4424L84.0395 53.5631C83.5394 54.0519 82.6665 54.0519 82.1749 53.5631L66.6812 38.4195C66.1642 37.9142 66.1642 37.1023 66.6812 36.597L68.851 34.4762C69.1053 34.2194 69.4443 34.1034 69.7918 34.1034C70.1393 34.1034 70.4699 34.236 70.7326 34.4762L86.2432 49.6364C86.4975 49.8849 86.6246 50.208 86.6246 50.5559C86.6246 50.9039 86.489 51.227 86.2432 51.4755L86.2178 51.4506L86.2093 51.4424Z" fill="white"/>
</g>
<defs>
<filter id="filter0_d_28_296" x="0" y="0" width="107.252" height="107.252" filterUnits="userSpaceOnUse" color-interpolation-filters="sRGB">
<feFlood flood-opacity="0" result="BackgroundImageFix"/>
<feColorMatrix in="SourceAlpha" type="matrix" values="0 0 0 0 0 0 0 0 0 0 0 0 0 0 0 0 0 0 127 0" result="hardAlpha"/>
<feOffset dy="2"/>
<feGaussianBlur stdDeviation="3.5"/>
<feComposite in2="hardAlpha" operator="out"/>
<feColorMatrix type="matrix" values="0 0 0 0 0 0 0 0 0 0 0 0 0 0 0 0 0 0 0.19 0"/>
<feBlend mode="normal" in2="BackgroundImageFix" result="effect1_dropShadow_28_296"/>
<feBlend mode="normal" in="SourceGraphic" in2="effect1_dropShadow_28_296" result="shape"/>
</filter>
</defs>
</svg>
