<svg width="108" height="108" viewBox="0 0 108 108" fill="none" xmlns="http://www.w3.org/2000/svg">
<g filter="url(#filter0_d_28_328)">
<rect x="7" y="5" width="93.2518" height="93.2518" rx="46.6259" fill="#00BCC3"/>
<path d="M53.4759 25.118C58.7271 25.118 63.4775 27.1794 66.9115 30.4999C70.3456 33.8204 72.4775 38.4206 72.4775 43.4912C72.4775 48.5618 70.3456 53.162 66.9115 56.4824C63.4775 59.8029 58.7199 61.8643 53.4759 61.8643C48.2319 61.8643 43.4743 59.8029 40.0403 56.4824C36.6063 53.162 34.4743 48.5618 34.4743 43.4912C34.4743 38.4206 36.6063 33.8273 40.0474 30.4999C43.4815 27.1725 48.2319 25.1111 53.4831 25.1111L53.4759 25.118ZM54.5848 32.5406L58.1619 38.9671L64.8225 42.4328C65.4306 42.751 65.6595 43.4843 65.3304 44.0653C65.2088 44.2867 65.0228 44.4527 64.8082 44.5634L58.1619 48.0222L54.5777 54.4625C54.2486 55.0505 53.4902 55.2719 52.8893 54.9536C52.6603 54.836 52.4886 54.6562 52.3742 54.4487L48.797 48.0222L42.1365 44.5565C41.5284 44.2383 41.2994 43.505 41.6285 42.9239C41.7501 42.7026 41.9361 42.5365 42.1508 42.4259L48.797 38.9671L52.3813 32.5268C52.7104 31.9388 53.4688 31.7174 54.0697 32.0356C54.2986 32.1532 54.4703 32.3331 54.5848 32.5406ZM56.1444 40.4336L53.4831 35.6535L50.8288 40.4267C50.7144 40.6342 50.5427 40.8071 50.3137 40.9317L45.3702 43.505L50.3066 46.0784C50.5212 46.189 50.7001 46.3551 50.8288 46.5764L53.4902 51.3565L56.1516 46.5833C56.2661 46.3758 56.4377 46.2029 56.6667 46.0784L61.6103 43.505L56.6738 40.9386C56.4592 40.8279 56.2804 40.6619 56.1516 40.4405L56.1444 40.4336ZM55.1428 67.6405L61.6961 82.1537L70.596 79.3728L69.0936 76.8202C68.7573 76.2391 68.9648 75.4989 69.5657 75.1738C70.1667 74.8487 70.9322 75.0493 71.2685 75.6304L73.5292 79.4697L73.6293 79.6979C73.8368 80.3344 73.4791 81.0123 72.8209 81.2129L61.4099 84.7755C60.8018 84.983 60.1222 84.6994 59.8575 84.1183L53.4831 69.9856L47.1086 84.1183C46.8439 84.6994 46.1643 84.983 45.5562 84.7755L34.1452 81.2129C33.487 81.0123 33.1293 80.3274 33.3368 79.6979C33.3654 79.6149 33.4012 79.5388 33.4369 79.4697L41.9505 64.9703C38.9028 63.4416 36.2271 61.3178 34.0737 58.7652C33.6372 58.2464 33.7159 57.4855 34.2525 57.0704C34.7891 56.6485 35.576 56.7246 36.0053 57.2434C38.1086 59.7406 40.7772 61.7744 43.8106 63.1718C46.7366 64.5138 50.0133 65.2678 53.4759 65.2678C59.7001 65.2678 65.3305 62.8328 69.4012 58.8898C73.4791 54.9467 75.9974 49.5026 75.9974 43.4912C75.9974 37.4798 73.4791 32.0287 69.4012 28.0926C65.3233 24.1495 59.6929 21.7145 53.4759 21.7145C47.2589 21.7145 41.6214 24.1495 37.5506 28.0926C33.4727 32.0356 30.9544 37.4798 30.9544 43.4912C30.9544 44.7087 31.0546 45.8916 31.2477 47.0191C31.4481 48.1951 31.7414 49.3435 32.1206 50.4434C32.3352 51.0729 31.9846 51.7577 31.3336 51.9722C30.6826 52.1797 29.9743 51.8407 29.7525 51.2112C29.3304 49.9868 29.0013 48.714 28.7795 47.4065C28.5649 46.1129 28.4504 44.8055 28.4504 43.4912C28.4504 36.8088 31.2549 30.7559 35.7835 26.3839C40.305 22.012 46.5649 19.3003 53.4759 19.3003C60.3869 19.3003 66.6397 22.012 71.1683 26.3908C75.6969 30.7697 78.5014 36.8226 78.5014 43.4981C78.5014 50.1736 75.6969 56.2265 71.1683 60.6053C69.3654 62.3486 67.2836 63.8289 65.0014 64.9773L67.0689 68.5052C67.4052 69.0863 67.1977 69.8265 66.5967 70.1516C65.9958 70.4768 65.2303 70.2761 64.894 69.6951L62.712 65.9872C60.3368 66.9004 57.7899 67.4745 55.1214 67.6405H55.1285H55.1428ZM69.2581 72.2062C69.5944 72.7872 69.3869 73.5274 68.7859 73.8526C68.185 74.1777 67.4195 73.9771 67.0832 73.396L66.9187 73.1124C66.5824 72.5313 66.7899 71.7911 67.3909 71.466C67.9918 71.1409 68.7573 71.3415 69.0936 71.9225L69.2581 72.2062ZM44.2327 65.9872L36.363 79.3797L45.2629 82.1606L51.8161 67.6475C49.1548 67.4814 46.6007 66.9073 44.2327 65.9941V65.9872ZM33.8376 54.172C34.1667 54.753 33.952 55.4932 33.3439 55.8114C32.743 56.1296 31.9775 55.9221 31.6484 55.3341L31.4838 55.0505C31.1547 54.4694 31.3694 53.7292 31.9775 53.411C32.5784 53.0928 33.3439 53.3003 33.673 53.8883L33.8376 54.172ZM65.1516 32.2155C62.1683 29.3308 58.0403 27.5392 53.4831 27.5392C48.9258 27.5392 44.7978 29.3239 41.8145 32.2155C38.8241 35.1001 36.9783 39.0916 36.9783 43.4981C36.9783 47.9046 38.8241 51.8961 41.8145 54.7807C44.7978 57.6654 48.9258 59.457 53.4831 59.457C58.0403 59.457 62.1683 57.6723 65.1516 54.7807C68.1349 51.8961 69.9878 47.9046 69.9878 43.4981C69.9878 39.0916 68.1421 35.1001 65.1516 32.2155Z" fill="white" stroke="white" stroke-width="0.5"/>
</g>
<defs>
<filter id="filter0_d_28_328" x="0" y="0" width="107.252" height="107.252" filterUnits="userSpaceOnUse" color-interpolation-filters="sRGB">
<feFlood flood-opacity="0" result="BackgroundImageFix"/>
<feColorMatrix in="SourceAlpha" type="matrix" values="0 0 0 0 0 0 0 0 0 0 0 0 0 0 0 0 0 0 127 0" result="hardAlpha"/>
<feOffset dy="2"/>
<feGaussianBlur stdDeviation="3.5"/>
<feComposite in2="hardAlpha" operator="out"/>
<feColorMatrix type="matrix" values="0 0 0 0 0 0 0 0 0 0 0 0 0 0 0 0 0 0 0.19 0"/>
<feBlend mode="normal" in2="BackgroundImageFix" result="effect1_dropShadow_28_328"/>
<feBlend mode="normal" in="SourceGraphic" in2="effect1_dropShadow_28_328" result="shape"/>
</filter>
</defs>
</svg>
