<svg width="107" height="107" viewBox="0 0 107 107" fill="none" xmlns="http://www.w3.org/2000/svg">
<g filter="url(#filter0_d_28_307)">
<rect x="7" y="5" width="92.9517" height="92.9517" rx="46.4759" fill="#00BCC3"/>
<path fill-rule="evenodd" clip-rule="evenodd" d="M48.8487 48.4711C49.1281 48.2533 49.3011 47.9608 49.3011 47.6434C49.3011 47.1268 49.3011 46.9214 49.2945 46.7222C49.2545 44.3945 49.2279 42.7327 51.4567 40.5356C52.2617 39.7389 52.9071 38.8365 53.3462 37.8531C53.7587 36.9195 53.9849 35.9112 53.9849 34.8656C53.9849 30.5213 50.9311 27.7267 47.0191 26.5006C45.4623 26.0089 43.7724 25.7662 42.0826 25.7599C40.3927 25.7599 38.7028 26.0027 37.1526 26.4944C33.2872 27.708 30.2667 30.4777 30.2667 34.8033C30.2667 35.849 30.4929 36.8572 30.9054 37.7908C31.3445 38.768 31.9832 39.6767 32.7949 40.4734C34.9571 42.6082 34.9305 44.4442 34.8906 46.7533C34.8906 46.9401 34.884 47.1392 34.884 47.6496C34.884 47.9608 35.0569 48.2533 35.3364 48.4774C35.6557 48.7326 36.1148 48.8882 36.6271 48.8882H47.5647C48.077 48.8882 48.5294 48.7326 48.8554 48.4774L48.8487 48.4711ZM47.8707 50.5811C47.8374 50.5811 47.8042 50.5811 47.7709 50.5811C47.6977 50.5811 47.6312 50.5811 47.5647 50.5811H36.6271C36.5805 50.5811 36.5339 50.5811 36.4873 50.5811C36.4674 50.5811 36.4408 50.5811 36.4208 50.5811C35.9218 50.5811 35.6158 50.8176 35.4827 51.1226C35.4228 51.2533 35.4029 51.4026 35.4029 51.552C35.4029 51.7014 35.4295 51.8508 35.4827 51.9815C35.6158 52.2864 35.9218 52.5229 36.4208 52.5229H47.8707C48.3697 52.5229 48.6757 52.2864 48.8088 51.9815C48.8687 51.8508 48.8886 51.7014 48.8886 51.552C48.8886 51.4026 48.862 51.2533 48.8088 51.1226C48.6757 50.8176 48.3697 50.5811 47.8707 50.5811ZM36.4142 54.2221C35.9152 54.2221 35.6091 54.4586 35.4761 54.7636C35.4162 54.8943 35.3962 55.0436 35.3962 55.193C35.3962 55.3424 35.4228 55.4918 35.4761 55.6225C35.6091 55.9274 35.9152 56.164 36.4142 56.164H47.8641C48.363 56.164 48.6691 55.9274 48.8021 55.6225C48.862 55.4918 48.882 55.3424 48.882 55.193C48.882 55.0436 48.8554 54.8943 48.8021 54.7636C48.6691 54.4586 48.363 54.2221 47.8641 54.2221H36.4142ZM45.2627 57.8631H38.9822C39.1219 58.0249 39.3082 58.1743 39.5211 58.3112C40.1731 58.7282 41.0912 58.9896 42.1225 58.9896C43.1537 58.9896 44.0718 58.7282 44.7238 58.3112C44.9367 58.1743 45.1163 58.0249 45.2627 57.8631ZM51.0841 46.0376C51.0841 44.9359 51.1573 44.0023 51.7095 43.0314H67.5105C67.9496 43.0314 68.3555 43.1995 68.6415 43.4733C68.9276 43.7472 69.1139 44.1206 69.1139 44.5314C69.1139 44.9422 68.9343 45.3218 68.6415 45.5895C68.3488 45.8571 67.9496 46.0314 67.5105 46.0314H51.0841V46.0376ZM66.1866 47.7367C69.2935 49.3052 71.9282 51.801 73.7844 54.8943C75.6273 57.9689 76.6984 61.6286 76.6984 65.5683C76.6984 70.8898 74.6692 74.0827 71.4225 75.9312C68.076 77.8295 63.3989 78.3897 58.2694 78.3897C53.1399 78.3897 48.5759 77.8358 45.3559 75.9375C42.2223 74.0952 40.2995 70.9023 40.2995 65.5746C40.2995 64.5601 40.3661 63.5767 40.4991 62.6369C40.5923 61.946 40.7253 61.2676 40.8917 60.5892C41.2908 60.6576 41.71 60.6888 42.1424 60.6888C43.5462 60.6888 44.8236 60.3153 45.7683 59.7116C46.5268 59.2261 47.0723 58.5913 47.3119 57.8631H47.884C49.2412 57.8631 50.1128 57.1598 50.5053 56.2511C50.6517 55.9088 50.7249 55.5478 50.7249 55.193C50.7249 54.8382 50.6517 54.471 50.5053 54.1349C50.3856 53.8549 50.2192 53.5997 50.013 53.3756C50.2259 53.1516 50.3856 52.8902 50.5053 52.6163C50.6517 52.274 50.7249 51.913 50.7249 51.5582C50.7249 51.2035 50.6517 50.8362 50.5053 50.5002C50.3922 50.2325 50.2325 49.9836 50.0396 49.7657C50.6916 49.2491 51.1041 48.5396 51.1307 47.7429H66.2065L66.1866 47.7367ZM67.3974 41.3385H67.5105C68.4486 41.3385 69.3068 41.6995 69.9256 42.2783C70.5443 42.8571 70.9302 43.66 70.9302 44.5376C70.9302 45.4152 70.5443 46.2181 69.9256 46.7969C69.6661 47.0396 69.3601 47.245 69.0208 47.4068C71.5689 49.0935 73.7378 51.3777 75.3545 54.0665C77.3437 57.3901 78.5014 61.3361 78.5014 65.5683C78.5014 71.5807 76.1395 75.2217 72.3539 77.369C68.6682 79.4664 63.6784 80.0764 58.2561 80.0764C52.8339 80.0764 47.9505 79.4664 44.3779 77.3627C40.712 75.2093 38.4699 71.5682 38.4699 65.5683C38.4699 64.5103 38.5431 63.4584 38.6895 62.419C38.8026 61.6161 38.949 60.8319 39.1419 60.0664C38.9157 59.9606 38.6962 59.8423 38.4966 59.7116C37.7381 59.2261 37.1926 58.5913 36.9531 57.8631H36.4208C35.0636 57.8631 34.192 57.1598 33.7995 56.2511C33.6531 55.9088 33.58 55.5478 33.58 55.193C33.58 54.8382 33.6531 54.471 33.7995 54.1349C33.9193 53.8549 34.0856 53.5997 34.2918 53.3756C34.0789 53.1516 33.9193 52.8902 33.7995 52.6163C33.6531 52.274 33.58 51.913 33.58 51.5582C33.58 51.2035 33.6531 50.8362 33.7995 50.5002C33.906 50.2574 34.0457 50.0209 34.2253 49.8155C34.2053 49.8031 34.192 49.7906 34.1721 49.772C33.4935 49.2367 33.0677 48.4836 33.0677 47.6558C33.0677 47.5438 33.0743 47.133 33.081 46.7409C33.1142 44.8177 33.1409 43.2866 31.4842 41.6497C30.5195 40.7036 29.7544 39.6207 29.2355 38.4506C28.7299 37.3116 28.4504 36.0855 28.4504 34.8096C28.4438 29.6188 32.0032 26.3201 36.5738 24.8824C38.3036 24.3346 40.1931 24.067 42.0759 24.067C43.9587 24.067 45.8482 24.3471 47.5913 24.8886C50.8912 25.928 53.6722 27.9321 54.9895 30.9009H66.4726C67.2444 30.9009 67.9696 31.0814 68.6016 31.4237C69.2337 31.766 69.7659 32.264 70.1518 32.8864C70.5443 33.5212 70.7373 34.1996 70.7373 34.878C70.7373 35.5564 70.5443 36.2348 70.1518 36.8635L67.3974 41.326V41.3385ZM53.12 41.3385C53.9183 40.4796 54.557 39.5273 55.0094 38.5066C55.5151 37.3676 55.7945 36.1415 55.7945 34.8656C55.7945 34.0689 55.708 33.3096 55.5483 32.6001H66.4726C66.9317 32.6001 67.3508 32.6996 67.7035 32.8926C68.0561 33.0855 68.3621 33.3718 68.5883 33.739C68.8145 34.1 68.921 34.4921 68.921 34.878C68.921 35.2639 68.8079 35.656 68.5817 36.0232L65.3084 41.326H53.1133L53.12 41.3385ZM59.4736 73.3483V71.8234C60.5315 71.6492 61.4829 71.2135 62.228 70.6035C63.2459 69.7695 63.8713 68.6056 63.8713 67.3235C63.8713 63.7447 61.2567 63.2344 58.6553 62.7302C56.7858 62.3692 54.9229 62.0082 54.9229 59.8423C54.9229 59.0643 55.3155 58.3548 55.9475 57.832C56.6128 57.2843 57.5376 56.9482 58.5688 56.9482C59.6 56.9482 60.5248 57.2843 61.1901 57.832C61.8222 58.3486 62.2147 59.0643 62.2147 59.8423C62.2147 60.3091 62.6205 60.6888 63.1195 60.6888C63.6185 60.6888 64.0243 60.3091 64.0243 59.8423C64.0243 58.554 63.3923 57.3963 62.381 56.5623C61.6026 55.9212 60.598 55.4731 59.4736 55.3175V53.8175C59.4736 53.3507 59.0678 52.9711 58.5688 52.9711C58.0698 52.9711 57.664 53.3507 57.664 53.8175V55.3175C56.5463 55.4731 55.535 55.9212 54.7566 56.5623C53.7387 57.3963 53.1133 58.5602 53.1133 59.8423C53.1133 63.3775 55.7014 63.8817 58.296 64.3858C60.1722 64.753 62.0617 65.114 62.0617 67.3235C62.0617 68.1015 61.6691 68.811 61.0371 69.3338C60.3718 69.8816 59.447 70.2176 58.4158 70.2176C57.3846 70.2176 56.4598 69.8816 55.7945 69.3338C55.1625 68.8173 54.7699 68.1015 54.7699 67.3235C54.7699 66.8567 54.3641 66.477 53.8651 66.477C53.3661 66.477 52.9603 66.8567 52.9603 67.3235C52.9603 68.6119 53.5923 69.7695 54.6036 70.6035C55.4153 71.2695 56.4798 71.7301 57.664 71.867V73.3483C57.664 73.8151 58.0698 74.1948 58.5688 74.1948C59.0678 74.1948 59.4736 73.8151 59.4736 73.3483Z" fill="white" stroke="white" stroke-width="0.7"/>
</g>
<defs>
<filter id="filter0_d_28_307" x="0" y="0" width="106.952" height="106.952" filterUnits="userSpaceOnUse" color-interpolation-filters="sRGB">
<feFlood flood-opacity="0" result="BackgroundImageFix"/>
<feColorMatrix in="SourceAlpha" type="matrix" values="0 0 0 0 0 0 0 0 0 0 0 0 0 0 0 0 0 0 127 0" result="hardAlpha"/>
<feOffset dy="2"/>
<feGaussianBlur stdDeviation="3.5"/>
<feComposite in2="hardAlpha" operator="out"/>
<feColorMatrix type="matrix" values="0 0 0 0 0 0 0 0 0 0 0 0 0 0 0 0 0 0 0.19 0"/>
<feBlend mode="normal" in2="BackgroundImageFix" result="effect1_dropShadow_28_307"/>
<feBlend mode="normal" in="SourceGraphic" in2="effect1_dropShadow_28_307" result="shape"/>
</filter>
</defs>
</svg>
