<svg width="109" height="107" viewBox="0 0 109 107" fill="none" xmlns="http://www.w3.org/2000/svg">
<g filter="url(#filter0_d_28_319)">
<rect x="7" y="5" width="94.1434" height="92.9517" rx="46.4759" fill="#00BCC3" shape-rendering="crispEdges"/>
<path d="M41.65 59.8643C40.3932 60.6255 39.0489 61.3338 37.5298 62.0103C28.9069 58.1729 23.4861 52.401 23.4861 43.2673V32.3048L37.5298 26.2685L51.5735 32.3048V38.6053C51.5954 40.0007 53.7375 39.9902 53.7593 38.6053V31.6176C53.7593 31.1948 53.508 30.8248 53.1145 30.6556L37.9779 24.1542C37.6938 24.0379 37.3768 24.0379 37.0927 24.1542L21.9451 30.6556C21.5517 30.8248 21.3003 31.2053 21.3003 31.6176V43.2673C21.3003 48.1618 22.7648 52.4538 25.6391 56.0481C28.3058 59.2723 32.426 62.4015 37.5298 64.2303C39.4861 63.67 41.2347 62.5389 42.8085 61.6615C44.0107 60.9109 42.8522 59.1455 41.6391 59.8749L41.65 59.8643Z" fill="white" stroke="white" stroke-width="0.5"/>
<path d="M35.508 39.345H42.5681C43.9998 39.345 43.9998 37.2413 42.5681 37.2308H38.6118V35.3596C38.6118 34.7782 38.12 34.3025 37.5189 34.3025C36.9178 34.3025 36.426 34.7782 36.426 35.3596V37.2308C30.3604 36.5753 29.4533 44.7893 35.497 45.2016H39.5298C41.202 45.1487 42.12 47.2841 40.896 48.3941C40.5244 48.7536 40.0435 48.9438 39.5298 48.9438H32.4697C31.038 48.9438 31.038 51.0581 32.4697 51.0581H36.426V52.9293C36.426 53.5107 36.9178 53.9864 37.5189 53.9864C38.12 53.9864 38.6118 53.5107 38.6118 52.9293V51.0581C41.202 51.3647 43.661 49.7156 43.661 47.0727C43.661 44.8739 41.814 43.0873 39.5408 43.0873H35.508C32.9615 43.045 32.9724 39.3873 35.508 39.345Z" fill="white" stroke="white" stroke-width="0.5"/>
<path d="M80.7869 43.6898C63.1147 27.3147 36.0655 47.8655 48.3497 68.3317C51.9781 74.2305 59.1147 78.0996 66.0983 78.0045C84.3497 78.0891 93.847 56.2803 80.7869 43.7004V43.6898ZM56.3606 61.5872L54.5027 56.2063L61.9672 48.9861H68.8087L60.754 56.7772C60.5464 56.978 60.4371 57.2423 60.4371 57.5277C60.4371 57.8132 60.5573 58.0775 60.754 58.2783L65.7049 63.0671C66.1311 63.4794 66.8196 63.4794 67.2459 63.0671L75.3005 55.276V61.8937L67.836 69.1245L62.2732 67.3274C61.8797 67.2006 61.4426 67.2957 61.1584 67.5811L55.7595 72.8034C53.7376 71.5243 52.0109 69.854 50.6994 67.9088L56.0983 62.6866C56.3934 62.4012 56.4918 61.9889 56.3606 61.6083V61.5872ZM79.2459 70.594C73.4972 76.1545 64.8196 77.4231 57.6939 73.9134L62.2295 69.5263L67.7923 71.3234C68.1858 71.4502 68.6229 71.3551 68.9071 71.0697L77.1803 63.0671C77.3879 62.8663 77.4972 62.602 77.4972 62.3166V52.7178C77.53 51.8086 76.2732 51.3012 75.6284 51.9672L66.4808 60.8154L63.071 57.5172L72.2185 48.6689C72.9071 48.0452 72.3934 46.8295 71.4426 46.8612H61.5191C61.224 46.8612 60.9508 46.9775 60.7431 47.1678L52.4808 55.1598C52.1857 55.4452 52.0874 55.8575 52.2185 56.238L54.0764 61.6189L49.5409 66.006C43.1584 54.2506 52.5027 39.715 66.1092 39.9053C82.4262 39.7995 90.9399 59.3143 79.2459 70.5728V70.594Z" fill="white" stroke="white" stroke-width="0.5"/>
</g>
<defs>
<filter id="filter0_d_28_319" x="0" y="0" width="108.143" height="106.952" filterUnits="userSpaceOnUse" color-interpolation-filters="sRGB">
<feFlood flood-opacity="0" result="BackgroundImageFix"/>
<feColorMatrix in="SourceAlpha" type="matrix" values="0 0 0 0 0 0 0 0 0 0 0 0 0 0 0 0 0 0 127 0" result="hardAlpha"/>
<feOffset dy="2"/>
<feGaussianBlur stdDeviation="3.5"/>
<feComposite in2="hardAlpha" operator="out"/>
<feColorMatrix type="matrix" values="0 0 0 0 0 0 0 0 0 0 0 0 0 0 0 0 0 0 0.17 0"/>
<feBlend mode="normal" in2="BackgroundImageFix" result="effect1_dropShadow_28_319"/>
<feBlend mode="normal" in="SourceGraphic" in2="effect1_dropShadow_28_319" result="shape"/>
</filter>
</defs>
</svg>
