<svg width="159" height="200" viewBox="0 0 159 200" fill="none" xmlns="http://www.w3.org/2000/svg">
<mask id="mask0_158_100" style="mask-type:luminance" maskUnits="userSpaceOnUse" x="43" y="69" width="116" height="85">
<path d="M158.643 82.4664V69.6113L43.73 147.585L53.0612 153.971L158.643 82.4664Z" fill="white"/>
</mask>
<g mask="url(#mask0_158_100)">
<path d="M159.869 -1.01221H-1.08447V172.041H159.869V-1.01221Z" fill="#636868"/>
</g>
<mask id="mask1_158_100" style="mask-type:luminance" maskUnits="userSpaceOnUse" x="28" y="48" width="131" height="96">
<path d="M158.643 61.8843V48.8213L28.4927 137.411L37.818 143.798L158.643 61.8843Z" fill="white"/>
</mask>
<g mask="url(#mask1_158_100)">
<path d="M159.869 -1.0119H-1.08398V172.042H159.869V-1.0119Z" fill="#636868"/>
</g>
<mask id="mask2_158_100" style="mask-type:luminance" maskUnits="userSpaceOnUse" x="13" y="28" width="146" height="105">
<path d="M158.643 40.4209V28.1787L13.918 126.488L23.2492 132.874L158.643 40.4209Z" fill="white"/>
</mask>
<g mask="url(#mask2_158_100)">
<path d="M159.868 -1.01196H-1.08472V172.042H159.868V-1.01196Z" fill="#636868"/>
</g>
<mask id="mask3_158_100" style="mask-type:luminance" maskUnits="userSpaceOnUse" x="59" y="92" width="100" height="74">
<path d="M158.643 105.046V92.3335L59.8174 159.329L69.1486 165.715L158.643 105.046Z" fill="white"/>
</mask>
<g mask="url(#mask3_158_100)">
<path d="M159.868 -1.01221H-1.08472V172.041H159.868V-1.01221Z" fill="#636868"/>
</g>
<mask id="mask4_158_100" style="mask-type:luminance" maskUnits="userSpaceOnUse" x="43" y="24" width="68" height="130">
<path d="M44.3106 64.7565L43.73 147.518L53.1668 153.97L53.4952 70.2236L110.368 29.6664L102.075 24.8286L44.3106 64.7565Z" fill="white"/>
</mask>
<g mask="url(#mask4_158_100)">
<path d="M159.869 -1.01288H-1.08447V172.041H159.869V-1.01288Z" fill="#00BCC3"/>
</g>
<mask id="mask5_158_100" style="mask-type:luminance" maskUnits="userSpaceOnUse" x="59" y="36" width="68" height="130">
<path d="M60.398 76.5011L59.8174 159.263L69.2542 165.715L69.5826 81.9682L126.455 41.411L118.162 36.5732L60.398 76.5011Z" fill="white"/>
</mask>
<g mask="url(#mask5_158_100)">
<path d="M159.868 -1.01239H-1.08472V172.041H159.868V-1.01239Z" fill="#00BCC3"/>
</g>
<mask id="mask6_158_100" style="mask-type:luminance" maskUnits="userSpaceOnUse" x="28" y="15" width="66" height="129">
<path d="M28.5396 55.4864L85.6295 15.0605L93.7114 19.9311L37.6597 60.866L37.818 143.797L28.4927 137.411L28.5396 55.4864Z" fill="white"/>
</mask>
<g mask="url(#mask6_158_100)">
<path d="M159.869 -1.01239H-1.08398V172.041H159.869V-1.01239Z" fill="#00BCC3"/>
</g>
<mask id="mask7_158_100" style="mask-type:luminance" maskUnits="userSpaceOnUse" x="13" y="5" width="66" height="128">
<path d="M69.9345 5.68018L13.918 46.8832V127.106L22.3166 132.874L22.346 51.8194L78.1983 10.611L69.9345 5.68018Z" fill="white"/>
</mask>
<g mask="url(#mask7_158_100)">
<path d="M159.868 -1.01276H-1.08472V172.041H159.868V-1.01276Z" fill="#00BCC3"/>
</g>
<mask id="mask8_158_100" style="mask-type:luminance" maskUnits="userSpaceOnUse" x="0" y="0" width="159" height="172">
<path d="M158.642 170.624V170.826H158.425V0.202485H158.642V0.40497H0.217005V0.202485H0.434009V170.826H0.217005V170.624H158.642ZM158.642 171.029H0V0H158.859V171.029H158.642Z" fill="white"/>
</mask>
<g mask="url(#mask8_158_100)">
<path d="M159.869 -1.01239H-1.08447V172.041H159.869V-1.01239Z" fill="#3F3E3F"/>
</g>
<mask id="mask9_158_100" style="mask-type:luminance" maskUnits="userSpaceOnUse" x="86" y="41" width="41" height="58">
<path d="M86.521 98.0737V89.7772L117.201 68.7243V48.1529L126.456 41.4106V70.7327" fill="white"/>
</mask>
<g mask="url(#mask9_158_100)">
<path d="M159.868 -1.0127H-1.08472V172.041H159.868V-1.0127Z" fill="#009399"/>
</g>
<path d="M15.7852 199V190.053H18.7207C19.666 190.053 20.4238 190.311 20.9941 190.826C21.5645 191.338 21.8496 192.027 21.8496 192.895C21.8496 193.758 21.5664 194.445 21 194.957C20.4375 195.469 19.6875 195.725 18.75 195.725H17.7012V199H15.7852ZM17.7012 194.09H18.6387C19.0684 194.086 19.4043 193.977 19.6465 193.762C19.8887 193.543 20.0098 193.252 20.0098 192.889C20.0098 192.521 19.8887 192.23 19.6465 192.016C19.4082 191.801 19.0723 191.693 18.6387 191.693H17.7012V194.09Z" fill="#636768"/>
<path d="M26.7793 199V190.053H32.1172V191.77H28.7012V193.65H31.7363V195.238H28.7012V197.283H32.1758V199H26.7793Z" fill="#636768"/>
<path d="M44.3828 199H42.3145L40.2812 195.578H39.707V199H37.7852V190.053H40.7734C41.6953 190.053 42.4375 190.316 43 190.844C43.5664 191.367 43.8496 192.064 43.8496 192.936C43.8496 193.553 43.6992 194.068 43.3984 194.482C43.1016 194.896 42.6816 195.195 42.1387 195.379L44.3828 199ZM39.707 191.693V194.066H40.7207C41.1113 194.062 41.4238 193.957 41.6582 193.75C41.8965 193.543 42.0156 193.256 42.0156 192.889C42.0156 192.521 41.8965 192.23 41.6582 192.016C41.4199 191.801 41.1074 191.693 40.7207 191.693H39.707Z" fill="#636768"/>
<path d="M55.168 199.229C54.5312 199.229 53.9199 199.107 53.334 198.865C52.748 198.623 52.2402 198.295 51.8105 197.881C51.3809 197.467 51.0371 196.967 50.7793 196.381C50.5254 195.791 50.3984 195.168 50.3984 194.512C50.3984 193.648 50.6191 192.855 51.0605 192.133C51.502 191.41 52.0938 190.844 52.8359 190.434C53.582 190.02 54.3887 189.812 55.2559 189.812C56.2715 189.812 57.2461 190.098 58.1797 190.668L58.2324 192.514C57.252 191.861 56.2617 191.535 55.2617 191.535C54.7148 191.535 54.2148 191.66 53.7617 191.91C53.3086 192.16 52.9473 192.516 52.6777 192.977C52.4121 193.434 52.2793 193.947 52.2793 194.518C52.2793 195.385 52.5605 196.1 53.123 196.662C53.6855 197.221 54.3809 197.5 55.209 197.5C55.7246 197.5 56.2402 197.383 56.7559 197.148V194.664H58.4727V198.25C57.8906 198.594 57.334 198.844 56.8027 199C56.2754 199.152 55.7305 199.229 55.168 199.229Z" fill="#636768"/>
<path d="M71.002 198.865C70.416 199.107 69.7949 199.229 69.1387 199.229C68.4824 199.229 67.8613 199.107 67.2754 198.865C66.6895 198.619 66.1855 198.287 65.7637 197.869C65.3457 197.451 65.0137 196.951 64.7676 196.369C64.5215 195.783 64.3984 195.164 64.3984 194.512C64.3984 193.859 64.5215 193.244 64.7676 192.666C65.0137 192.084 65.3457 191.584 65.7637 191.166C66.1855 190.748 66.6895 190.418 67.2754 190.176C67.8613 189.934 68.4824 189.812 69.1387 189.812C69.7949 189.812 70.416 189.934 71.002 190.176C71.5879 190.418 72.0898 190.748 72.5078 191.166C72.9297 191.584 73.2637 192.084 73.5098 192.666C73.7559 193.244 73.8789 193.859 73.8789 194.512C73.8789 195.164 73.7559 195.783 73.5098 196.369C73.2637 196.951 72.9297 197.451 72.5078 197.869C72.0898 198.287 71.5879 198.619 71.002 198.865ZM67.709 197.072C68.1426 197.33 68.6191 197.459 69.1387 197.459C69.6582 197.459 70.1328 197.33 70.5625 197.072C70.9961 196.814 71.3379 196.461 71.5879 196.012C71.8379 195.562 71.9629 195.064 71.9629 194.518C71.9629 193.975 71.8379 193.479 71.5879 193.029C71.3379 192.576 70.9961 192.221 70.5625 191.963C70.1328 191.705 69.6582 191.576 69.1387 191.576C68.6191 191.576 68.1426 191.705 67.709 191.963C67.2793 192.221 66.9395 192.576 66.6895 193.029C66.4434 193.479 66.3203 193.975 66.3203 194.518C66.3203 195.064 66.4434 195.562 66.6895 196.012C66.9395 196.461 67.2793 196.814 67.709 197.072Z" fill="#636768"/>
<path d="M81.7852 199V190.053H83.7012V197.283H86.6602V199H81.7852Z" fill="#00BCC3"/>
<path d="M97.0176 198.93C96.5449 199.113 96.0312 199.205 95.4766 199.205C94.9219 199.205 94.4062 199.113 93.9297 198.93C93.457 198.746 93.0547 198.494 92.7227 198.174C92.3906 197.85 92.1289 197.459 91.9375 197.002C91.75 196.541 91.6562 196.043 91.6562 195.508V190.053H93.5781V195.508C93.5781 196.074 93.7559 196.541 94.1113 196.908C94.4707 197.275 94.9258 197.459 95.4766 197.459C96.0273 197.459 96.4805 197.275 96.8359 196.908C97.1953 196.541 97.375 196.072 97.375 195.502V190.053H99.2969V195.508C99.2969 196.043 99.2012 196.541 99.0098 197.002C98.8223 197.459 98.5625 197.85 98.2305 198.174C97.8984 198.494 97.4941 198.746 97.0176 198.93Z" fill="#00BCC3"/>
<path d="M105.129 199L108.105 194.359L105.381 190.053H107.654L109.236 192.654L109.342 192.965L109.453 192.654L111.029 190.053H113.221L110.496 194.359L113.473 199H111.193L109.43 196.135L109.26 195.719L109.096 196.129L107.332 199H105.129Z" fill="#00BCC3"/>
<path d="M125.018 198.93C124.545 199.113 124.031 199.205 123.477 199.205C122.922 199.205 122.406 199.113 121.93 198.93C121.457 198.746 121.055 198.494 120.723 198.174C120.391 197.85 120.129 197.459 119.938 197.002C119.75 196.541 119.656 196.043 119.656 195.508V190.053H121.578V195.508C121.578 196.074 121.756 196.541 122.111 196.908C122.471 197.275 122.926 197.459 123.477 197.459C124.027 197.459 124.48 197.275 124.836 196.908C125.195 196.541 125.375 196.072 125.375 195.502V190.053H127.297V195.508C127.297 196.043 127.201 196.541 127.01 197.002C126.822 197.459 126.562 197.85 126.23 198.174C125.898 198.494 125.494 198.746 125.018 198.93Z" fill="#00BCC3"/>
<path d="M136.258 199.229C135.727 199.229 135.24 199.152 134.799 199C134.361 198.852 133.926 198.646 133.492 198.385L133.486 196.352C133.924 196.676 134.391 196.949 134.887 197.172C135.383 197.395 135.84 197.506 136.258 197.506C136.602 197.506 136.881 197.41 137.096 197.219C137.311 197.027 137.418 196.762 137.418 196.422C137.418 196.32 137.402 196.229 137.371 196.146C137.34 196.061 137.287 195.98 137.213 195.906C137.139 195.828 137.062 195.762 136.984 195.707C136.91 195.648 136.803 195.586 136.662 195.52C136.525 195.453 136.4 195.396 136.287 195.35C136.178 195.303 136.029 195.242 135.842 195.168C135.447 195.02 135.115 194.871 134.846 194.723C134.58 194.574 134.336 194.395 134.113 194.184C133.891 193.973 133.725 193.723 133.615 193.434C133.51 193.145 133.457 192.811 133.457 192.432C133.457 191.639 133.738 191.006 134.301 190.533C134.863 190.057 135.59 189.818 136.48 189.818C137.27 189.818 138.057 190.023 138.842 190.434V192.35C138.525 192.1 138.152 191.898 137.723 191.746C137.293 191.594 136.891 191.518 136.516 191.518C136.148 191.518 135.859 191.609 135.648 191.793C135.441 191.973 135.338 192.207 135.338 192.496C135.338 192.625 135.361 192.742 135.408 192.848C135.455 192.949 135.514 193.037 135.584 193.111C135.654 193.182 135.756 193.254 135.889 193.328C136.025 193.398 136.152 193.459 136.27 193.51C136.387 193.557 136.545 193.615 136.744 193.686C137.135 193.818 137.475 193.961 137.764 194.113C138.057 194.266 138.326 194.449 138.572 194.664C138.822 194.879 139.012 195.135 139.141 195.432C139.273 195.729 139.34 196.059 139.34 196.422C139.34 197.305 139.055 197.994 138.484 198.49C137.914 198.982 137.172 199.229 136.258 199.229Z" fill="#00BCC3"/>
</svg>
